# xmcd CD database file
#
# Track frame offsets:
#	150
#	12000
#	23168
#	38250
#	53625
#	66825
#	78975
#	90150
#	104100
#	115500
#	130575
#	143475
#	156525
#	168450
#	182100
#	196125
#	208575
#	221400
#	240150
#	251475
#	264375
#	275925
#	287925
#	302850
#
# Disc length: 4189 seconds
#
# Revision: 4
# Processed by: cddbd v1.4PL0 Copyright (c) Steve Scherf et al.
# Submitted via: CDex 1.50
#
DISCID=45105b18
DTITLE=Various Artist - Country U. S. A. - 1972
DYEAR=1972
DGENRE=Country
TTITLE0=Charley Pride - It's Gonna Take A Little Bit Longer
TTITLE1=Loretta Lynn - Rated "X"
TTITLE2=Merl Haggard - It's Not Love (But It's Not Bad)
TTITLE3=Conway Twitty - (Lost Her Love) On Our Last Date
TTITLE4=Tanya Tucker - Delta Dawn
TTITLE5=Buck Owens - Made In Japan
TTITLE6=Joe Stamply - Soul Song
TTITLE7=George Jones - Loving You Could Never Be Better
TTITLE8=Donna Fargo - The Happiest Girl In The Whole U.S.A.
TTITLE9=Tom T Hall - Me And Jesus
TTITLE10=Merl Haggard - I Wonder If They Ever Think Of Me
TTITLE11=Statler Brothers - Do You Remember These
TTITLE12=Loretta Lynn - One's On The Way
TTITLE13=Waylen Jennings - Good Hearted Woman
TTITLE14=Tammy Wynette And George Jones - The Ceremony
TTITLE15=Hank Williams Jr - Eleven Roses
TTITLE16=Conway Twitty - I Can't Stop Loving You
TTITLE17=Tom T Hall - (Old Dogs, Children And) Watermelon Wine
TTITLE18=Johnny Bush - Whiskey River
TTITLE19=Mel Street - Lovin' On Back Streets
TTITLE20=George Jones - A Picture Of Me (Without You)
TTITLE21=Tammy Wynette - 'til I Get It Right
TTITLE22=Don Gibson - Woman (Sensuous Woman)
TTITLE23=Jerry Lee Lewis - Think About It Darlin'
EXTD=YEAR: 1972
EXTT0=Pride, Charley
EXTT1=Lynn, Loretta
EXTT2=Haggard, Merle
EXTT3=Twitty, Conway
EXTT4=Tucker, Tanya
EXTT5=Owens, Buck
EXTT6=Stampley, Joe
EXTT7=Jones, George
EXTT8=Fargo, Donna
EXTT9=Hall, Tom T.
EXTT10=Haggard, Merle
EXTT11=The Statler Brothers
EXTT12=Lynn, Loretta
EXTT13=Jennings, Waylon
EXTT14=Wynette, Tammy and Jones, George
EXTT15=Williams Jr., Hank
EXTT16=Twitty, Conway
EXTT17=Hall, Tom T.
EXTT18=Bush, Johnny
EXTT19=Street, Mel
EXTT20=Jones, George
EXTT21=Wynette, Tammy
EXTT22=Gibson, Don
EXTT23=Lewis, Jerry Lee
PLAYORDER=
